<svg width="309" height="57" viewBox="0 0 309 57" fill="none" xmlns="http://www.w3.org/2000/svg">
  <path d="M83.6664 0H112.238L91.3178 56.9871H68.3374L70.5291 50.9966L80.3985 24.0521L51.8929 51.9865H45.1602L36.8001 26.3403L25.5527 57H2.57233L0 54.6346L0.721828 54.2618C2.12611 53.4648 3.46477 52.4107 4.73782 51.0866L4.76406 50.9966L21.3661 5.70771L19.87 0.0128552H46.4726L54.5308 26.7774L83.6664 0.0128552V0Z" fill="#EEEEEE"/>
  <path d="M131.149 44.8316H197.605L189.031 57H103.722L101.152 54.6357L101.874 54.2631C101.874 54.2631 103.578 53.3893 105.912 50.9993L113.175 31.1341L122.457 5.65374L121.002 0.0256988H147.694C150.893 0.0256988 154.276 0.0256988 157.75 0.0256988H180.26L213.39 0L194.839 17.6294L194.695 17.3724C192.754 13.993 189.936 12.1298 186.947 12.1298H143.145L140.942 18.1562L139.369 22.4479C140.746 22.4479 141.493 22.4479 145.243 22.4479C148.966 22.4608 152.348 22.4479 155.731 22.4479C168.015 22.5122 178.045 22.4479 178.923 22.4479L170.336 34.5778H134.912L131.149 44.8316Z" fill="#EEEEEE"/>
  <path d="M308.658 1.74752C308.302 0.783814 307.71 0.167042 307.038 0H225.353L222.285 4.3431L216.743 12.1684H282.513C282.631 12.2069 282.724 12.2969 282.789 12.4639C282.868 12.6695 282.855 12.9137 282.789 13.1193L281.354 17.0383L279.38 22.4222H247.39L239.61 34.5392L239.544 34.642H274.891L271.152 44.8316H226.998C224.181 44.6517 221.522 42.8399 219.692 39.6276L219.547 39.3706L213.781 44.8316L200.919 57H276.694C276.892 57 277.089 56.9743 277.287 56.9743C285.133 56.6659 292.307 50.2541 296.151 40.0388L298.179 34.642L294.98 30.1319L301.707 25.0307L308.684 5.39675C309.105 4.24031 309.105 2.89112 308.684 1.74752H308.658Z" fill="#BA00FB"/>
</svg>
